{
  "accessors": [
    {
      "bufferView": 0,
      "componentType": 5125,
      "count": 84036,
      "max": [
        34146
      ],
      "min": [
        0
      ],
      "type": "SCALAR"
    },
    {
      "bufferView": 1,
      "componentType": 5126,
      "count": 34147,
      "max": [
        0.8458992731591393,
        0.9490129854588972,
        2.5035844918382755
      ],
      "min": [
        -0.8160953299658733,
        -0.7263648385475787,
        -1.9401014311816318
      ],
      "type": "VEC3"
    },
    {
      "bufferView": 2,
      "componentType": 5126,
      "count": 34147,
      "max": [
        0.999557614326477,
        0.9996077418327332
      ],
      "min": [
        0.00038399724871851504,
        0.0006832480430603027
      ],
      "type": "VEC2"
    }
  ],
  "asset": {
    "generator": "3DF Zephyr",
    "version": "2.0"
  },
  "bufferViews": [
    {
      "buffer": 0,
      "byteLength": 336144,
      "target": 34963
    },
    {
      "buffer": 1,
      "byteLength": 409764,
      "target": 34962
    },
    {
      "buffer": 2,
      "byteLength": 273176,
      "target": 34962
    },
    {
      "buffer": 3,
      "byteLength": 144752
    }
  ],
  "buffers": [
    {
      "byteLength": 336144,
      "uri": "data:application/octet-stream;base64,"
    },
    {
      "byteLength": 409764,
      "uri": "data:application/octet-stream;base64,"
    },
    {
      "byteLength": 273176,
      "uri": "data:application/octet-stream;base64,"
    },
    {
      "byteLength": 144752,
      "uri": "data:application/octet-stream;base64,"
    }
  ],
  "extensionsRequired": [
    "KHR_materials_unlit"
  ],
  "extensionsUsed": [
    "KHR_materials_unlit"
  ],
  "images": [
    {
      "bufferView": 3,
      "mimeType": "image/jpeg"
    }
  ],
  "materials": [
    {
      "emissiveFactor": [
        1.0,
        1.0,
        1.0
      ],
      "emissiveTexture": {
        "index": 0
      },
      "pbrMetallicRoughness": {
        "baseColorTexture": {
          "index": 0
        },
        "metallicFactor": 0.0
      }
    }
  ],
  "meshes": [
    {
      "primitives": [
        {
          "attributes": {
            "POSITION": 1,
            "TEXCOORD_0": 2
          },
          "indices": 0,
          "material": 0,
          "mode": 4
        }
      ]
    }
  ],
  "nodes": [
    {
      "mesh": 0
    }
  ],
  "samplers": [
    {
      "wrapS": 10497,
      "wrapT": 10497
    }
  ],
  "scenes": [
    {
      "nodes": [
        0
      ]
    }
  ],
  "textures": [
    {
      "sampler": 0,
      "source": 0
    }
  ]
}
