{
  "accessors": [
    {
      "bufferView": 0,
      "componentType": 5125,
      "count": 49533,
      "max": [
        18164
      ],
      "min": [
        0
      ],
      "type": "SCALAR"
    },
    {
      "bufferView": 1,
      "componentType": 5126,
      "count": 18165,
      "max": [
        10.521259700984313,
        11.675947822935987,
        4.826376225915861
      ],
      "min": [
        -8.176113088240239,
        -10.896227796296165,
        -4.910196875543772
      ],
      "type": "VEC3"
    },
    {
      "bufferView": 2,
      "componentType": 5126,
      "count": 18165,
      "max": [
        0.9992376565933228,
        0.9992601871490479
      ],
      "min": [
        0.0007433975115418434,
        0.0033002495765686035
      ],
      "type": "VEC2"
    }
  ],
  "asset": {
    "generator": "3DF Zephyr",
    "version": "2.0"
  },
  "bufferViews": [
    {
      "buffer": 0,
      "byteLength": 198132,
      "target": 34963
    },
    {
      "buffer": 1,
      "byteLength": 217980,
      "target": 34962
    },
    {
      "buffer": 2,
      "byteLength": 145320,
      "target": 34962
    },
    {
      "buffer": 3,
      "byteLength": 1341608
    }
  ],
  "buffers": [
    {
      "byteLength": 198132,
      "uri": "data:application/octet-stream;base64,"
    },
    {
      "byteLength": 217980,
      "uri": "data:application/octet-stream;base64,"
    },
    {
      "byteLength": 145320,
      "uri": "data:application/octet-stream;base64,"
    },
    {
      "byteLength": 1341608,
      "uri": "data:application/octet-stream;base64,"
    }
  ],
  "extensionsRequired": [
    "KHR_materials_unlit"
  ],
  "extensionsUsed": [
    "KHR_materials_unlit"
  ],
  "images": [
    {
      "bufferView": 3,
      "mimeType": "image/jpeg"
    }
  ],
  "materials": [
    {
      "emissiveFactor": [
        1.0,
        1.0,
        1.0
      ],
      "emissiveTexture": {
        "index": 0
      },
      "pbrMetallicRoughness": {
        "baseColorTexture": {
          "index": 0
        },
        "metallicFactor": 0.0
      }
    }
  ],
  "meshes": [
    {
      "primitives": [
        {
          "attributes": {
            "POSITION": 1,
            "TEXCOORD_0": 2
          },
          "indices": 0,
          "material": 0,
          "mode": 4
        }
      ]
    }
  ],
  "nodes": [
    {
      "mesh": 0
    }
  ],
  "samplers": [
    {
      "wrapS": 10497,
      "wrapT": 10497
    }
  ],
  "scenes": [
    {
      "nodes": [
        0
      ]
    }
  ],
  "textures": [
    {
      "sampler": 0,
      "source": 0
    }
  ]
}
